# xmcd
#
# Track frame offsets:
#	182
#	15227
#	32895
#	46510
#	66450
#	82077
#	97052
#	112370
#	133660
#	147112
#	161357
#	178925
#
# Disc length: 2550 seconds
#
# Revision: 1
# Processed by: cddbd v1.5.2PL0 Copyright (c) Steve Scherf et al.
# Submitted via: EZCDAudioConverter 7.1.2.1
#
DISCID=a609f40c
DTITLE=Alabama - Down Home
DYEAR=1994
DGENRE=Country
TTITLE0=Down Home
TTITLE1=True True Housewife
TTITLE2=Lovin' You Is Killin' Me
TTITLE3=Carolina Mountain Dew
TTITLE4=Fallin' Again
TTITLE5=Love In The First Degree
TTITLE6=Feels So Right
TTITLE7=Very Special Love
TTITLE8=Green River
TTITLE9=Why Lady Why
TTITLE10=Words At Twenty Paces
TTITLE11=Never Be One
EXTD=
EXTT0=
EXTT1=
EXTT2=
EXTT3=
EXTT4=
EXTT5=
EXTT6=
EXTT7=
EXTT8=
EXTT9=
EXTT10=
EXTT11=
PLAYORDER=
